

<svg
            xmlns="http://www.w3.org/2000/svg"
            viewBox="0 0 1274.73 657.71"  width="100vh" 
          >
            <defs>
              <style>{".cls-1{fill:#f4f4f4}"}</style>
            </defs>
            <g id="Layer_3" data-name="Layer 3">
              <path
                d="M819.28 351.38c16.01-6.05 32.08-11.96 48.01-18.21 5.35-2.1 10.23-5.41 15.56-7.58 19.24-7.83 33.35-22.56 48.28-36 4.26-3.84 5.88-10.59 8.71-16-5.9-1.87-11.79-5.29-17.71-5.34-32.13-.23-64.26.36-96.39.71-13.56.15-18.89-7.27-11.48-18.71 13.43-20.73 29.37-38.7 54.21-47.57 21.77-7.77 43.84-9.48 66.44-9.29 5.31.04 10.97.07 12.49 6.72 1.45 6.36-2.38 9.7-7.37 13.19-8.27 5.76-18.68 9.46-21.63 21.21-.63 2.51-5.57 4.8-8.91 5.62-11.96 2.91-24.09 5.15-37.01 7.82-2.8-5.19-.71-9.9 4.62-14.4 3.68-3.1 6.56-7.15 9.79-10.78-.75-1.08-1.49-2.16-2.24-3.23-9.97 4.08-19.95 8.15-29.93 12.23 9.49 21.29 26.59 26.31 45.39 27.53 13.13.85 26.73 2.37 37.32-8.81 2.29-2.42 6.08-3.36 8.87-5.4 12.33-9 20.15-2.34 26.57 8.45.14.24.14.56.25.83 11.84 26.3 11.48 25.91-9.72 45.34-29.98 27.48-62.93 49.49-102.81 60.02-21.74 5.74-43.33 12.08-65.09 17.73-3.55.92-7.67-.34-11.53-.6.93-3.73.98-8 2.93-11.08 8.76-13.84 18.12-27.29 27.13-40.97 7.27-11.03 15.7-21.67 12.12-36.44-.27-1.12 2.64-4.05 4.44-4.45 6.66-1.48 13.45-2.73 20.24-3.09 3.6-.19 8.37.57 10.63 2.85 1.78 1.8 1.7 7.11.41 9.94-5.49 12.08-11.94 23.44-22.59 32.29-7.98 6.63-14.43 15.08-21.56 22.71.52.93 1.03 1.86 1.55 2.8ZM232.16 297.13c0 12.28-1.86 33-1.91 45.28-.06 13.75-5.85 31.53-19.66 31.67-5.12.05-10.46-.67-15.35-2.17-10.44-3.19-8.34-15.15-2.09-24.19 13.58-19.63 13.67-60.22 10.47-82.53-1.13-7.84.7-16.08 0-24.02-.74-8.28-3.03-16.41-4.43-24.65-.4-2.38-.04-4.89-.03-7.34 2.41.26 5.02.03 7.2.87 6.2 2.4 12.58 4.66 18.16 8.15 2.73 1.7 4.76 5.8 5.49 9.15 2.47 11.47 4.22 23.1 6.24 34.66l4.86-.51c-.44-8.79.01-17.75-1.62-26.31-1.28-6.68-.13-9.68 6.18-12.7 9.06-4.35 17.23-10.51 25.97-15.57 4.21-2.44 8.85-4.14 15.32-7.1-1.4 8.09-3.52 13.43-2.96 18.48 1.59 14.23 3.19 28.62 6.75 42.44 8.85 34.35 18.74 68.44 28.35 102.6 1.16 4.13 3.5 11.91 4.7 16.03.65 2.24.71 5.17-.27 7.13-.48.96-4.07.97-6.05.52-31.51-7.16-29.26 1.4-27.27-38.32 1.19-23.78-5.77-46.3-11.46-68.94-.76-3.02-5.24-5.1-8-7.62-1.77 3.2-4.93 6.35-5.06 9.62-.41 10.36.27 20.77.6 31.16.15 4.63-.2 8.9-5.99 9.8-5.01.78-7.59-1.58-10.05-6.07-3.99-7.28-9.26-13.87-13.99-20.75-1.36.41-2.72.82-4.09 1.22ZM426.19 242.05c3.75 12.37 6.15 23.55 10.8 33.7 1.41 3.07 9.11 4.58 13.87 4.48 6.46-.14 10.72 2.16 11.12 7.92.4 5.74-4.78 6.74-9.8 7.35-21.06 2.55-27 9.63-28.46 33.23-.07 1.15.09 2.31.07 3.46-.22 14.7 6.78 19.04 20.07 12.62 3.36-1.62 7.06-3.84 10.53-3.72 14.38.49 19.28-9.12 23.51-20.13.97-2.52 3.41-6.42 5.05-6.36 3.97.15 9.6 1.05 11.5 3.77 8.17 11.71 14.13 24.41 12.23 39.53-1.06 8.44-6.15 12.17-13.66 13.2-6.25.86-12.74 1.68-18.94.97-18.37-2.1-32.48 7.37-47.7 15.08-6.5 3.29-16.59 4.82-22.68 2.02-5.39-2.47-7.64-11.99-10.91-18.58-.55-1.11.3-3.73 1.38-4.69 17.82-16.06 21.58-38.22 25.93-59.95 1.07-5.33-.62-11.18-.91-16.8-.17-3.4-1.21-7.31.06-10.13 6.4-14.31 2.86-28.27-.94-42.12-2.36-8.58-5.55-18.02 1.26-24.55 6.99-6.71 16.03-1.85 23.53 1.88 11 5.47 21.59 11.77 32.57 17.29 3.8 1.91 8.18 3.24 12.41 3.63 5.47.51 7.79 3.1 8.05 8.18.23 4.42-1.02 6.9-5.93 8.88-8.44 3.4-16.18 8.55-24.13 13.11-6.07 3.48-10.81 3.43-13.84-3.93-4.3-10.41-11.54-17.31-26.02-19.33ZM771.99 197.61c8.23-1.34 15.11-2.22 21.88-3.64 6.97-1.47 9.28 1.44 8.13 7.84-5.7 31.8-11.29 63.62-17.34 95.35-1.77 9.31-5.11 18.32-7.37 27.56-2.89 11.81-9.55 21.03-19.48 27.63-9.32 6.18-15.32 14.71-19.6 24.6-2.09 4.84-4.43 6.8-9.88 4.75-5.93-2.23-12.18-3.67-18.33-5.28-11.12-2.9-16.98-10.06-18.43-21.36-2.37-18.41.16-36.35 5.5-53.87 6.42-21.07 9.28-42.14 4.27-63.97-2.65-11.55-1.74-12.08 10.43-13.63 12.01-1.53 23.93-4.12 35.97-4.87 9.37-.58 10.22 1.63 5.56 10-1.52 2.73-4.11 4.84-5.79 7.5-6.73 10.63-14.75 20.74-19.58 32.19-7.38 17.49-12.94 35.79-18.44 54-2.61 8.63-6.19 19.01 3.01 25.63 9 6.47 19.19 3.38 27.69-2.34 22.17-14.91 33.64-37.25 35.11-62.67 1.49-25.73-1.78-51.73-2.96-77.61-.11-2.51-.23-5.02-.36-7.8ZM545.27 250.89l-36.51 17.23c.36-7.14.8-14.99 1.13-22.84.14-3.45.39-6.95.03-10.36-1.36-12.65 7.58-19.38 20.36-16.11 7.45 1.91 15.33 2.46 23.05 2.95 5.28.33 8.43-1.96 8.32-8.31-.06-3.46 2.58-6.97 4-10.45 2.82 2.63 6.08 4.94 8.36 7.97 5.83 7.73 12.84 12.85 22.9 13.48 6.04.37 12.02 1.73 18.06 2.36 3.8.4 7.7 0 11.48.5 3.51.46 7.86.68 10.07 2.82 1.55 1.5 1.03 6.45-.15 9.17-4.18 9.62-5.89 9.43-16.41 6.81-7.73-1.93-16.09-2.73-24.03-2.15-13.75 1.02-18.15 5.72-19.65 19.39-1.76 16.03-2.35 32.2-4.53 48.17-1.63 11.93-4.99 23.61-7.53 35.42-1.33 6.2-4.92 22.38-6.64 28.46-3.45 12.15-5.57 10.03-19.55 8.76-8.05-.73-7.16-8.25-6.36-13.79 1.73-11.98 5.67-34.13 9.53-45.48 3.95-11.62 4.14-23.09 4.08-34.88-.06-12.39-.01-24.77-.01-39.11Z"
                className="cls-1"
              />
              <path
                d="M317.05 243.92c5 9.53 9.35 19.48 15.21 28.45 4.13 6.32 11.39 4.14 17.6 2.66 4.94-1.17 11.06-4.61 13.39 2.26 2.1 6.2-3.65 8.48-8.8 10.55-18.61 7.48-21.56 15.07-13.58 36.07 1.25 3.29 4.87 6.55 8.17 7.83 1.49.58 5.43-3.33 7.32-5.89 5.97-8.08 11.94-16.21 17.03-24.84 3.44-5.83 5.25-12.59 8.11-18.79 1.34-2.9 3.06-7.26 5.27-7.71 2.54-.51 6.65 1.89 8.59 4.24 4.35 5.31 8.06 11.21 11.52 17.17 4.4 7.58 2.72 13.83-4.74 18.48-5.64 3.52-11.49 6.72-17.32 9.93-14.27 7.86-20.44 20.63-21.45 36.11-.76 11.74-2.52 22.57-15.71 27.99-5.91-2.47-7.87-7.39-8.87-14.84-3.22-23.96-5.71-48.39-12.86-71.29-3.79-12.14-7.51-23.65-8.78-36.39-1.04-10.46-5.49-20.54-7.53-30.97-1.19-6.1-1.24-12.61-.67-18.83.66-7.22 5.79-10.51 12.36-7.67 14.49 6.24 28.32 14.06 42.98 19.84 6.95 2.74 15.2 2.04 22.79 3.37 3.26.57 6.31 2.34 9.46 3.56-2.25 2.55-4.06 5.81-6.83 7.53-8.47 5.28-17.61 9.54-25.94 15.02-10.06 6.62-14.38 6.53-21.71-3.37-5.71-7.73-13.55-10.74-21.99-12.97l-2.99 2.51Z"
                className="cls-1"
              />
            </g>
            <g id="Layer_4" data-name="Layer 4">
              <path
                d="M1055.26 61.52C974.25-54.15 578.61 9.26 308.58 129.85 38.56 250.44-44.88 393.21 22.91 548.02c49.94 114.05 250.48 182.08 628.9-20.17C932.59 377.78 1158.54 209 1055.26 61.53Z"
                style={{
                  fill: "none",
                  stroke: "#f4f4f4",
                  strokeMiterlimit: 10,
                }}
              />
            </g>
          </svg>